<?xml version="1.0" encoding="utf-8"?>
<!-- Generator: Adobe Illustrator 25.0.0, SVG Export Plug-In . SVG Version: 6.00 Build 0)  -->
<svg version="1.1" id="图层_1" xmlns="http://www.w3.org/2000/svg" xmlns:xlink="http://www.w3.org/1999/xlink" x="0px" y="0px"
	 viewBox="0 0 56.2 57.6" style="enable-background:new 0 0 56.2 57.6;" xml:space="preserve">
<style type="text/css">
	.st0{fill:#FFFFFF;}
</style>
<path class="st0" d="M50.2,7.6h-5.1l4.2,4.2h-3.1c-7.1,0-11.5,6.3-12,7.1c-0.7,0.9-9.5,12.3-14.3,18.5c-4.4,5.7-11.6,5.7-11.7,5.7
	h-8v3.5h8c0,0,0,0,0.1,0c0.8,0,9.1-0.2,14.4-7.1C27.7,33,37,20.9,37,20.9l0.1-0.1c0-0.1,3.6-5.5,9.1-5.5h3.1l-4.2,4.2h5.1l6-6
	L50.2,7.6z"/>
<g>
	<path class="st0" d="M8.3,11.8h-8v3.5h8l0,0c0.2,0,7.3,0.1,11.6,5.7c1.6,2,3.6,4.6,5.6,7.2c0.7-1,1.5-2,2.2-3
		c-1.8-2.3-3.5-4.6-4.9-6.4C17.3,11.8,8.7,11.8,8.3,11.8z"/>
	<path class="st0" d="M50.2,38.9h-5.1l4.2,4.2h-3.1c-5.5,0-9-5.5-9.1-5.5L37,37.5c0,0-2.5-3.2-5.5-7.2c-0.7,1-1.5,2-2.2,3
		c2.5,3.3,4.5,5.8,4.8,6.3c0.5,0.8,4.9,7.1,12,7.1h3.1L45,50.9h5.1l6-6L50.2,38.9z"/>
</g>
</svg>
