<svg xmlns="http://www.w3.org/2000/svg" viewBox="0 0 56.2 57.6"><defs><style>.a{fill:none;stroke:#a03f3f;stroke-miterlimit:10;stroke-width:2px;}</style></defs><path class="a" d="M38.92,6.41a14.65,14.65,0,0,1,10.21,4.18,14.46,14.46,0,0,1,0,20.33L28.05,52l-21-21.08A14.35,14.35,0,0,1,17.28,6.41,14.67,14.67,0,0,1,27.5,10.59l.65.65.65-.65A14.26,14.26,0,0,1,38.92,6.41m0-.93A15.42,15.42,0,0,0,28.05,9.94,15.39,15.39,0,0,0,17.19,5.48,15.19,15.19,0,0,0,6.42,9.94a15.48,15.48,0,0,0,0,21.73L28.15,53.39,49.78,31.57a15.46,15.46,0,0,0,0-21.72A15.69,15.69,0,0,0,38.92,5.48Z"/></svg>