<svg xmlns="http://www.w3.org/2000/svg" viewBox="0 0 480 480"><defs><style>.a{fill:#fffbb3;}.b{fill:#eac800;}</style></defs><circle class="a" cx="240" cy="240" r="240"/><path class="b" d="M231.52,319.24c2.26.82,4.49,1.72,6.77,2.45C265,330.13,274.16,348,265.6,374.93c-4.73,14.87-3.41,16.71,11.93,16.59,3.33,0,6.67-.28,10-.11,14.51.74,20.45,5.6,20.39,16.47-.08,13.95-8.65,23.56-21.55,23.62-49.57.26-99.16.6-148.74.35-10.44-.05-22.43,1.8-29.71-8.86s-6.17-22.2-.28-33.17,15-17.82,28.11-17.33c6.11.23,12.17,1.44,19.08,2.31,2.09-62.6,34.33-103.75,89.81-128.13-15-43.36-15.13-44.41-9-74.11-19.28-12.76-38.85-24.55-57-38.18-11.19-8.39-21.17-18.86-30.08-29.72C136.68,90.18,136,77,144.05,64.39c10.77-16.82,23.07-22,42.27-17.93a13,13,0,0,0,3.11,0c3-5.39,5-11.06,8.73-15.27C215,12,235.46,12.91,252.13,34c18.9,23.93,30,51.72,37.45,81.07.7,2.74,1.45,5.47,2.39,9,37.8-7.29,63.43,10.18,83.92,39.39,6.61,9.44,16.27,16.74,22.91,26.16,3.53,5,6.06,13,4.75,18.73-4.24,18.44-14.41,33.58-31.29,43.29-7.55,4.34-15.33,8.27-23.59,12.7,13.09,28.75,6.39,58.39,3.05,88-1.11,9.87-1.84,20.06-.54,29.82.8,6,6.49,11.13,8.71,17.13,2.59,7,6.65,15.41,4.72,21.5-1.69,5.3-10.65,11.1-16.75,11.51-8.93.59-19-1.91-27-6.07-4.39-2.28-7.81-10.64-7.89-16.31-.32-22.7-4.56-27.56-27.85-27.85-3.7-.05-7.4,0-12.3,0,4.3-18.18,7.7-35.56-6.86-49.93C256.53,322.8,245.64,316.91,231.52,319.24ZM350.83,192.78l12.08-12c-5.31-3.74-10.2-8.94-16.09-10.61-2.93-.82-7.7,4.82-11.64,7.54Z"/></svg>